<?xml version="1.0" encoding="UTF-8"?>
<svg xmlns="http://www.w3.org/2000/svg" id="Layer_1" data-name="Layer 1" viewBox="0 0 24 24">
  <path d="M18.032,11.326c-.059-.116-1.456-2.84-4.248-4.088-.756-.337-1.643,0-1.981,.757-.338,.756,0,1.643,.757,1.981,1.108,.496,1.908,1.4,2.361,2.025-.452,.624-1.252,1.527-2.361,2.023-.756,.338-1.095,1.226-.757,1.981,.249,.558,.796,.888,1.37,.888,.204,0,.413-.042,.611-.131,2.792-1.249,4.189-3.972,4.248-4.087,.214-.425,.214-.926,0-1.35Z"/>
  <path d="M12.082,11.176c-.058-.088-1.455-2.179-4.162-3.389-.758-.341-1.645,0-1.981,.757-.338,.756,0,1.644,.757,1.981,.948,.424,1.672,1.004,2.157,1.476-.483,.47-1.206,1.047-2.157,1.473-.756,.338-1.095,1.225-.757,1.981,.249,.558,.796,.888,1.37,.888,.205,0,.413-.042,.611-.131,2.707-1.21,4.103-3.3,4.162-3.388,.329-.5,.329-1.148,0-1.648Z"/>
</svg>
